<?xml version="1.0" encoding="iso-8859-1"?>
<!-- Generator: Adobe Illustrator 19.0.0, SVG Export Plug-In . SVG Version: 6.00 Build 0)  -->
<svg version="1.1" id="Layer_1" xmlns="http://www.w3.org/2000/svg" xmlns:xlink="http://www.w3.org/1999/xlink" x="0px" y="0px"
	 viewBox="0 0 511.999 511.999" style="enable-background:new 0 0 511.999 511.999;" xml:space="preserve">
<g>
	<path style="fill:#FED771;" d="M488.967,9.256l-28.901-0.652c-7.568-0.173-18.14,4.066-23.496,9.419L280.624,173.972
		c-5.353,5.353-5.353,14.111,0,19.464l38.24,38.236c5.35,5.353,14.109,5.353,19.461,0l16.852-16.854
		c0.433,0.182,0.892,0.343,1.403,0.472l11.896,2.979c5.138,1.288,8.291-1.864,7.005-7.004l-2.981-11.899
		c-0.127-0.508-0.288-0.969-0.47-1.4l0.425-0.424l19.396,4.858c7.34,1.839,11.842-2.664,10.004-10.006L396.998,173l20.414-20.415
		c0.431,0.18,0.889,0.344,1.401,0.472l11.893,2.98c5.14,1.288,8.297-1.864,7.006-7.004l-2.979-11.899
		c-0.075-0.311-0.165-0.606-0.264-0.886c0.283,0.096,0.577,0.186,0.89,0.263l11.891,2.983c5.14,1.288,8.293-1.863,7.005-7.004
		l-2.978-11.899c-0.076-0.311-0.166-0.606-0.263-0.886c0.282,0.096,0.576,0.186,0.889,0.263l11.893,2.979
		c5.144,1.289,8.293-1.863,7.006-7.004l-2.979-11.899c-0.127-0.508-0.291-0.968-0.471-1.399l2.065-2.065l14.282,3.577
		c7.346,1.84,11.847-2.663,10.009-10.007l-3.58-14.283l4.146-4.146c5.355-5.351,9.593-15.922,9.419-23.491l-0.652-28.904
		C502.867,15.759,496.533,9.428,488.967,9.256z"/>
	<path style="fill:#FED771;" d="M188.901,190.764c-36.619,36.623-36.624,96.003,0,132.629
		c36.625,36.625,96.008,36.624,132.632,0.001c36.623-36.624,36.623-96.005,0-132.631
		C284.908,154.139,225.526,154.14,188.901,190.764z M230.599,301.882c-5.578,5.574-14.612,5.573-20.184,0
		c-5.578-5.573-5.578-14.608,0-20.184c5.572-5.573,14.608-5.574,20.184,0C236.171,287.272,236.171,296.309,230.599,301.882z"/>
</g>
<path style="fill:#E5AB46;" d="M200.579,202.443c-30.174,30.174-30.174,79.096,0.003,109.272c30.174,30.174,79.096,30.174,109.269,0
	c30.178-30.174,30.178-79.099,0.003-109.274C279.679,172.266,230.757,172.267,200.579,202.443z M228.753,300.037
	c-4.556,4.554-11.939,4.555-16.495,0.001c-4.554-4.555-4.554-11.94,0.002-16.494c4.554-4.555,11.937-4.555,16.493,0
	C233.307,288.098,233.307,295.482,228.753,300.037z"/>
<rect x="39.409" y="322.022" transform="matrix(-0.7071 0.7071 -0.7071 -0.7071 476.3504 596.9784)" style="fill:#A13838;" width="150.256" height="150.245"/>
<rect x="52.684" y="335.301" transform="matrix(-0.7071 0.7071 -0.7071 -0.7071 476.3457 596.9897)" style="fill:#FF5959;" width="123.696" height="123.696"/>
<path style="fill:#333E48;" d="M215.664,303.443l-53.68,53.678c-1.875,1.88-4.928,1.88-6.805-0.001
	c-1.884-1.881-1.884-4.931,0-6.811l53.674-53.678c1.884-1.882,4.934-1.882,6.812-0.001
	C217.548,298.511,217.545,301.561,215.664,303.443z"/>
<path style="fill:#1E252B;" d="M118.579,356.776l-0.125-0.126c-1.323-1.323-3.025-2.395-5.355-3.718l-8.065-4.41
	c-2.52-1.387-5.418-1.009-7.372,0.945c-2.27,2.267-2.204,6.111,0.065,8.38c0.503,0.503,1.321,1.072,1.953,1.45l4.283,2.52
	l-30.492,30.493c-2.652,2.647-2.652,6.932-0.003,9.579c2.648,2.646,6.933,2.645,9.577-0.001l35.536-35.535
	C121.226,363.708,121.226,359.422,118.579,356.776z M139.499,378.956c-2.332-2.33-5.985-2.33-8.443-0.126l-15.816,14.05
	c-1.761,1.515-2.52,3.403-2.142,5.672c0.569,3.34,1.072,4.979,2.458,6.364c1.321,1.325,4.096,1.826,7.813,5.544
	c4.602,4.6,5.608,10.018,1.829,13.798l-0.127,0.126c-3.906,3.906-9.137,3.088-13.23-1.009c-3.088-3.087-4.789-6.552-5.543-11.214
	c-0.193-1.323-0.63-2.396-1.765-3.529c-2.522-2.521-6.745-2.457-9.261,0.064c-1.639,1.637-2.082,3.717-1.767,5.672
	c1.007,6.047,3.59,11.907,9.705,18.019c9.699,9.704,22.367,10.521,31.691,1.198l0.127-0.127c9.955-9.954,7.372-20.855-1.326-29.549
	c-2.454-2.458-4.347-3.718-6.554-5.041l8.131-7.12l14.871,14.87c2.332,2.332,6.173,2.395,8.506,0.064
	c2.333-2.332,2.333-6.239,0-8.569L139.499,378.956z M499.324,82.414l0.817-0.817c6.984-6.978,12.077-19.684,11.851-29.551
	L511.34,23.14c-0.271-11.961-10.223-21.913-22.185-22.184l-28.9-0.652c-0.21-0.004-0.425-0.007-0.64-0.007
	c-9.72,0-22.152,5.096-28.917,11.856L283.795,159.059c-9.272-2.698-18.863-4.063-28.582-4.063
	c-27.267,0-52.902,10.618-72.184,29.898c-37.821,37.827-39.673,98.177-5.611,138.242l-9.45,9.451L120.42,285.04
	c-1.558-1.558-3.669-2.432-5.872-2.432c-2.202,0-4.313,0.875-5.872,2.432L2.432,391.283c-3.243,3.243-3.243,8.5,0,11.742
	L108.673,509.27c1.558,1.558,3.669,2.432,5.872,2.432c2.202,0,4.313-0.875,5.872-2.432l106.246-106.245
	c1.557-1.557,2.431-3.669,2.431-5.871s-0.875-4.314-2.431-5.871L179.71,344.33l9.446-9.447
	c18.433,15.701,41.582,24.282,66.061,24.282c27.268,0,52.904-10.618,72.187-29.9c13.824-13.827,23.339-31.186,27.514-50.204
	c3.683-16.779,3.092-34.15-1.682-50.56l4.389-4.389l8.831,2.213c5.873,1.471,11.572-0.266,14.822-4.431
	c2.647-3.391,3.448-7.88,2.255-12.647l-0.1-0.394l6.394,1.601c1.749,0.438,3.479,0.661,5.144,0.661c5.089,0,9.478-2.034,12.36-5.726
	c3.092-3.961,4.006-9.292,2.574-15.01l-3.713-14.832l13.666-13.666l8.828,2.212c5.878,1.471,11.578-0.267,14.83-4.435
	c2.516-3.228,3.361-7.451,2.409-11.95c5.625,1.189,11.009-0.588,14.132-4.591c2.518-3.227,3.363-7.45,2.411-11.952
	c5.631,1.187,11.01-0.588,14.134-4.59c2.646-3.391,3.445-7.882,2.252-12.644l-0.648-2.586l3.474,0.87
	c1.749,0.437,3.481,0.66,5.144,0.66c0.001,0,0.001,0,0.001,0c5.09,0,9.48-2.033,12.362-5.725c3.092-3.96,4.006-9.292,2.573-15.016
	L499.324,82.414z M209.048,397.152l-94.503,94.502l-94.5-94.501l94.501-94.502l41.677,41.677l-0.803,0.803
	c-3.243,3.243-3.243,8.5,0.001,11.742c1.621,1.622,3.746,2.432,5.871,2.432s4.25-0.81,5.872-2.432l0.803-0.803L209.048,397.152z
	 M488.401,69.852l-4.146,4.146c-2.063,2.064-2.892,5.06-2.182,7.89l3.558,14.195l-14.198-3.556
	c-2.829-0.707-5.824,0.118-7.888,2.182l-2.066,2.066c-2.377,2.376-3.087,5.951-1.798,9.055c0.043,0.105,0.072,0.186,0.084,0.234
	l1.955,7.806l-7.819-1.96c-0.073-0.018-0.142-0.041-0.208-0.064c-3.004-1.024-6.329-0.247-8.568,2.005
	c-2.239,2.251-2.997,5.581-1.956,8.579c0.018,0.048,0.033,0.099,0.053,0.177l1.954,7.806l-7.829-1.962
	c-0.073-0.019-0.142-0.042-0.209-0.064c-3.012-1.023-6.319-0.163-8.554,2.097c-2.234,2.261-2.963,5.671-1.908,8.669l1.955,7.806
	l-7.81-1.957c-0.042-0.011-0.106-0.033-0.188-0.069c-3.114-1.31-6.707-0.604-9.094,1.781l-20.414,20.415
	c-2.063,2.063-2.891,5.057-2.183,7.887l4.833,19.307l-19.306-4.836c-2.829-0.707-5.823,0.117-7.885,2.18l-0.425,0.424
	c-2.394,2.39-3.098,5.993-1.779,9.109c0.029,0.071,0.048,0.125,0.063,0.185l1.956,7.804l-7.791-1.952
	c-0.041-0.01-0.104-0.029-0.225-0.08c-3.11-1.303-6.695-0.596-9.078,1.788l-11.384,11.386c-2.251,2.252-3.017,5.591-1.971,8.598
	c10.705,30.788,2.741,65.561-20.287,88.591c-16.146,16.144-37.612,25.035-60.445,25.035c-20.042,0-39.028-6.854-54.289-19.448
	l10.606-10.607c2.797,1.212,5.832,1.862,8.972,1.862c6.028,0,11.697-2.348,15.966-6.613c8.8-8.802,8.8-23.123-0.001-31.928
	c-4.266-4.263-9.934-6.612-15.963-6.612c-6.03,0-11.699,2.349-15.962,6.612c-4.267,4.265-6.616,9.935-6.616,15.966
	c0,3.139,0.65,6.174,1.862,8.971l-10.598,10.599c-27.619-33.544-25.764-83.377,5.58-114.725
	c16.145-16.143,37.61-25.034,60.442-25.034c9.625,0,19.097,1.596,28.152,4.746c3.007,1.046,6.348,0.279,8.6-1.972L442.443,23.896
	c3.663-3.661,11.849-6.994,17.176-6.994l29.165,0.655c3.104,0.07,5.888,2.855,5.958,5.957l0.652,28.908
	C495.513,57.766,492.182,66.073,488.401,69.852z M214.536,291.791c0-1.593,0.621-3.092,1.751-4.221
	c1.127-1.127,2.625-1.748,4.219-1.748c1.595,0,3.094,0.622,4.221,1.747c2.327,2.328,2.328,6.116,0.002,8.441
	c-1.129,1.129-2.629,1.75-4.224,1.75c-1.593,0-3.092-0.621-4.221-1.75C215.156,294.882,214.536,293.384,214.536,291.791z
	 M315.641,184.911l11.783,11.703L474.517,48.528l-11.783-11.703L315.641,184.911z"/>
<g>
</g>
<g>
</g>
<g>
</g>
<g>
</g>
<g>
</g>
<g>
</g>
<g>
</g>
<g>
</g>
<g>
</g>
<g>
</g>
<g>
</g>
<g>
</g>
<g>
</g>
<g>
</g>
<g>
</g>
</svg>
